<svg t="1633861516050" class="icon" viewBox="0 0 1024 1024" version="1.1" xmlns="http://www.w3.org/2000/svg" p-id="10809" width="64" height="64"><path d="M512 1024C229.2224 1024 0 794.7776 0 512 0 229.2224 229.2224 0 512 0 794.7776 0 1024 229.2224 1024 512 1024 794.7776 794.7776 1024 512 1024ZM780.1344 292.9664 732.7744 291.584C702.6176 290.7136 613.376 281.1904 563.3024 248.064 464.0256 182.3744 327.3728 241.5616 321.6384 244.1216L292.5568 256.9728 292.5568 753.3568 390.0928 753.3568 390.0928 581.5296C424.8576 572.0576 475.904 565.3504 509.4912 587.52 593.3056 643.0208 724.5824 647.1168 730.1632 647.2704L780.1856 648.6016 780.1344 292.9664ZM451.2768 475.3408C429.4144 475.3408 408.4736 478.0032 390.0928 481.6384L390.0928 323.3792C424.8576 313.856 475.904 307.2 509.4912 329.3696 562.8416 364.7488 635.5456 379.1872 682.6496 385.1264L682.6496 544.9728C644.2496 539.2384 595.7632 527.7184 563.3024 506.2144 528.128 482.9184 488.3456 475.3408 451.2768 475.3408Z" p-id="10810"></path></svg>