<svg t="1633861105619" class="icon" viewBox="0 0 1024 1024" version="1.1" xmlns="http://www.w3.org/2000/svg" p-id="6164" width="64" height="64"><path d="M913.554286 73.142857H109.641143C47.542857 73.142857 0 119.588571 0 180.370286v536.064c0 60.708571 47.469714 107.227429 109.641143 107.227428H913.554286c62.098286 0 109.714286-46.445714 109.714285-107.227428V180.370286c0-60.781714-47.616-107.227429-109.714285-107.227429zM727.259429 462.116571L379.245714 630.637714c-17.554286 10.24-31.597714 3.364571-31.597714-17.261714v-333.531429c0-17.188571 14.043429-24.064 31.597714-17.188571l348.013715 168.521143c17.554286 10.24 17.554286 24.137143 0 30.939428z m-725.430858 506.148572h171.739429v-82.066286H1.828571v82.139429z m339.894858 0h171.666285v-82.066286H341.723429v82.139429z m339.748571 0h339.821714v-82.066286H681.472v82.139429z" p-id="6165"></path></svg>