<svg t="1624933126030" class="icon" viewBox="0 0 1024 1024" version="1.1" xmlns="http://www.w3.org/2000/svg" p-id="6072" width="128" height="128"><path d="M512 1024C229.239467 1024 0 794.760533 0 512 0 229.239467 229.239467 0 512 0c282.760533 0 512 229.239467 512 512 0 282.760533-229.239467 512-512 512z m176.128-750.933333H331.9808c-53.998933 0-58.709333 62.327467-58.709333 62.327466v360.413867c0 36.7616 58.709333 55.125333 58.709333 55.125333h271.36l146.193067-144.827733V330.615467c0.034133-30.890667-20.48-50.0736-61.44-57.5488z m24.2688 311.808v19.831466h-87.620267c-22.152533 0-21.947733 16.7936-21.947733 16.7936V713.386667h-262.144c-27.170133 0-30.1056-23.176533-30.1056-23.176534V344.200533c0-30.378667 30.1056-35.9424 30.1056-35.9424s309.282133 1.536 337.7152 1.536c28.398933 0 33.9968 33.9968 33.9968 33.9968v241.083734z m-56.797867-197.7344c0-10.24-9.079467-18.500267-20.309333-18.500267h-246.033067c-11.264 0-20.3776 8.260267-20.3776 18.500267 0 10.274133 9.1136 18.5344 20.3776 18.5344h246.033067c11.264 0 20.309333-8.260267 20.309333-18.5344z m0 95.095466c0-10.001067-10.478933-18.056533-23.278933-18.0224h-240.162133c-12.834133 0-23.278933 8.021333-23.278934 18.0224 0 9.898667 10.4448 17.954133 23.278934 17.954134h240.162133c12.868267 0 23.278933-8.055467 23.278933-17.954134z m-127.419733 94.5152c0-10.001067-5.802667-18.056533-12.970667-18.0224h-133.393066c-7.133867 0-12.936533 8.021333-12.936534 18.0224 0 9.898667 5.802667 17.954133 12.936534 17.954134h133.4272c7.168 0 12.936533-8.055467 12.936533-17.954134z" p-id="6073"></path></svg>