<svg t="1637299223022" class="icon" viewBox="0 0 1024 1024" version="1.1" xmlns="http://www.w3.org/2000/svg" p-id="8351" width="48" height="48"><path d="M204.8 25.6h614.4a102.4 102.4 0 0 1 102.4 102.4v768a102.4 102.4 0 0 1-102.4 102.4H204.8a102.4 102.4 0 0 1-102.4-102.4V128a102.4 102.4 0 0 1 102.4-102.4z m72.064 200.8064l-5.632-8.8576c-1.8176-2.8416-3.584-5.1456-5.3504-6.912a20.0192 20.0192 0 0 0-6.0672-4.2496A19.9168 19.9168 0 0 0 251.52 204.8a20.8128 20.8128 0 0 0-11.52 3.456 19.584 19.584 0 0 0-7.68 8.9088c-1.28 3.328-1.92 7.8848-1.92 13.7216v137.216c0 6.7072 1.536 11.8272 4.608 15.36 3.072 3.5072 7.168 5.2736 12.2624 5.2736 4.9408 0 8.96-1.7408 12.1344-5.2224 3.1488-3.4816 4.736-8.6016 4.736-15.4112v-104.192l67.584 103.5776c1.92 2.8416 3.8656 5.632 5.8112 8.32 1.9456 2.7136 4.0448 5.0688 6.2976 7.0912a22.1696 22.1696 0 0 0 16.0256 5.8368c12.928 0 19.4048-7.808 19.4048-23.424V225.4336c0-6.8864-1.4848-12.032-4.48-15.488A15.4112 15.4112 0 0 0 362.496 204.8a14.9504 14.9504 0 0 0-11.9552 5.1456c-2.944 3.456-4.4288 8.6016-4.4288 15.488v105.7792l-69.2736-104.8064z m259.0464 9.216c5.7344 0 9.984-1.28 12.8-3.84a13.056 13.056 0 0 0 4.1728-10.112 12.928 12.928 0 0 0-4.1728-10.0096c-2.816-2.56-7.0656-3.84-12.8-3.84h-95.1296c-5.0944 0-9.2928 0.768-12.544 2.2528a14.336 14.336 0 0 0-7.2448 7.168c-1.536 3.2768-2.304 7.5008-2.304 12.672v133.7088c0 7.7568 1.7408 13.3888 5.1712 16.8704 3.4304 3.456 9.088 5.1968 16.9216 5.1968h97.92c5.632 0 9.9072-1.3056 12.8-3.9424a13.2608 13.2608 0 0 0 4.3008-10.24 13.5424 13.5424 0 0 0-4.3008-10.496c-2.8928-2.6368-7.168-3.9424-12.8-3.9424h-83.968v-50.5856h74.752c5.5552 0 9.7024-1.28 12.3648-3.84a13.056 13.056 0 0 0 3.9936-9.8816 12.5696 12.5696 0 0 0-4.0448-9.7536c-2.7136-2.4832-6.8352-3.712-12.3392-3.712h-74.7264V235.6224h81.152z m174.464 122.0608c2.3296 8.32 4.1728 14.208 5.4528 17.664 1.28 3.4048 3.584 6.5024 6.912 9.2672 3.328 2.7392 7.7312 4.096 13.2352 4.096 5.8112 0 10.3168-1.3824 13.5168-4.224a23.68 23.68 0 0 0 6.8096-9.8816c1.3312-3.7632 2.9952-9.7024 5.0176-17.792l29.6192-119.7312c1.792-7.296 2.6624-12.5952 2.6624-15.8976a15.488 15.488 0 0 0-4.9152-11.7248 16.7168 16.7168 0 0 0-11.9552-4.6592c-4.6848 0-8.2688 1.2032-10.752 3.6352a20.4288 20.4288 0 0 0-5.1968 8.2432c-1.024 3.072-2.0736 7.3216-3.2256 12.7488l-23.296 103.8592-26.3168-97.1776a225.7152 225.7152 0 0 0-5.2224-17.2288 24.1664 24.1664 0 0 0-6.9632-9.6512c-3.3536-2.944-8.064-4.4288-14.1312-4.4288-5.9904 0-10.7264 1.408-14.208 4.2496a24.4992 24.4992 0 0 0-7.5264 10.0608c-1.536 3.8912-3.2768 9.5488-5.2224 16.9984l-26.0608 97.1776-23.296-103.8592c-1.7152-8.0128-3.6864-14.1056-5.9648-18.3296-2.2528-4.1984-6.656-6.2976-13.2096-6.2976a16.5376 16.5376 0 0 0-12.032 4.736 15.616 15.616 0 0 0-4.8384 11.648c0 3.6352 0.896 8.9344 2.6624 15.872l29.6192 119.7568c0.8704 3.584 1.8944 7.424 3.0208 11.5968 1.1264 4.1728 2.5856 7.7568 4.352 10.8032 1.792 3.0208 4.1216 5.376 6.9888 7.04a21.76 21.76 0 0 0 11.008 2.4832c5.4784 0 9.8816-1.408 13.2096-4.1984a23.0912 23.0912 0 0 0 6.9632-9.472c1.3312-3.5072 3.1488-9.2928 5.4016-17.408l29.1328-106.624 28.7488 106.6496zM256 537.6a25.6 25.6 0 1 0 0 51.2h358.4a25.6 25.6 0 1 0 0-51.2H256z m0 128a25.6 25.6 0 1 0 0 51.2h512a25.6 25.6 0 1 0 0-51.2H256z m0 128a25.6 25.6 0 1 0 0 51.2h512a25.6 25.6 0 1 0 0-51.2H256z" p-id="8352"></path></svg>