<svg t="1633860939337" class="icon" viewBox="0 0 1024 1024" version="1.1" xmlns="http://www.w3.org/2000/svg" p-id="4644" width="64" height="64"><path d="M843.876183 0.08311h-664.738364a48.384881 48.384881 0 0 0-51.134874 51.133874v779.790081a63.916843 63.916843 0 0 0 63.917843 63.917843l467.937848 127.833685h5.112988c34.259916 10.482974 38.349906-48.512881 38.349905-63.916843v-63.916842h127.834686a70.756826 70.756826 0 0 0 63.917842-63.917843V51.216984A48.449881 48.449881 0 0 0 843.876183 0.08311zM544.42392 639.255537a95.236766 95.236766 0 1 1 96.259763-95.875764 95.875764 95.875764 0 0 1-95.875764 95.299765z m286.669295 191.751528H703.257529V191.834638c0-38.349906-15.723961-51.133874-63.917842-63.916843L383.671316 63.999953h447.420899v767.008112z" p-id="4645"></path></svg>