<svg t="1622515542895" class="icon" viewBox="0 0 1024 1024" version="1.1" xmlns="http://www.w3.org/2000/svg" p-id="3062" width="32" height="32"><path d="M600.32 227.136c-73.344 0-133.013333 59.626667-133.013333 132.928 0 73.28 59.669333 132.906667 133.013333 132.906667 73.322667 0 132.992-59.626667 132.992-132.906667C733.333333 286.784 673.664 227.136 600.32 227.136z" p-id="3063"></path><path d="M432.256 505.386667c0-0.021333 0.021333-0.042667 0.021333-0.064 0-0.085333 0-0.085333 0.021333-0.170667 0-0.106667-0.021333-0.106667-0.021333-0.192 0 0 0 0 0-0.021333 0 0.106667 0 0.106667 0.021333 0.213333C432.256 505.28 432.256 505.28 432.256 505.386667z" p-id="3064"></path><path d="M512 0C229.226667 0 0 229.226667 0 512s229.226667 512 512 512 512-229.226667 512-512S794.773333 0 512 0zM222.122667 727.722667c0 13.589333-11.008 24.597333-24.618667 24.597333-13.589333 0-24.618667-11.008-24.618667-24.597333 0-101.44 59.050667-191.125333 146.432-228.608-38.570667-29.418667-62.357333-76.288-62.357333-127.552 0-87.104 67.52-158.122667 150.698667-158.122667 13.589333 0 24.618667 11.008 24.618667 24.597333s-11.008 24.597333-24.618667 24.597333c-55.829333 0-101.482667 48.746667-101.482667 108.906667s45.653333 108.906667 101.482667 108.906667c13.546667 0 24.490667 10.922667 24.576 24.448 0-0.042667 0-0.064 0-0.106667-0.042667-0.512-0.085333-0.96-0.128-1.173333-0.021333-0.149333-0.064-0.277333-0.106667-0.448-0.021333-0.064-0.021333-0.149333-0.064-0.213333 0 0 0 0 0.021333 0.106667 0.021333 0.042667 0.021333 0.064 0.021333 0.106667 0.042667 0.106667 0.064 0.256 0.106667 0.448 0.042667 0.213333 0.085333 0.618667 0.128 1.173333 0 0.042667 0 0.064 0.021333 0.106667 0 0.042667 0.021333 0.085333 0.021333 0.128s0 0.042667 0 0.064c0 0.042667 0 0.021333 0 0.064s-0.021333 0.064-0.021333 0.106667c-0.064 0.682667-0.106667 1.130667-0.149333 1.365333-0.021333 0.234667-0.064 0.341333-0.106667 0.469333 0 0.021333 0 0.042667-0.021333 0.064l0 0c0-0.021333 0.021333-0.064 0.021333-0.085333 0.042667-0.170667 0.085333-0.298667 0.106667-0.469333 0.021333-0.213333 0.064-0.682667 0.128-1.301333-0.106667 13.504-11.029333 24.426667-24.576 24.426667C305.472 529.813333 222.122667 618.496 222.122667 727.722667zM602.944 542.122667c-0.064 0-0.064 0-0.128 0.021333-1.770667 0.32-2.901333 0.448-3.733333 0.32C468.864 542.506667 362.24 649.450667 362.24 780.458667c0 13.589333-11.008 24.597333-24.618667 24.597333s-24.618667-11.008-24.618667-24.597333c0-121.045333 76.096-227.456 187.029333-268.864-50.325333-33.322667-81.962667-89.578667-81.962667-151.530667 0-100.437333 81.728-182.122667 182.229333-182.122667 100.48 0 182.208 81.685333 182.208 182.122667 0 99.221333-79.914667 180.224-179.029333 181.952C603.392 542.037333 603.392 542.037333 602.944 542.122667zM863.018667 805.056c-13.589333 0-24.618667-11.008-24.618667-24.597333 0-63.402667-24.661333-123.050667-69.504-168-9.578667-9.621333-9.557333-25.194667 0.064-34.794667 9.642667-9.578667 25.216-9.578667 34.794667 0.042667 54.08 54.208 83.882667 126.229333 83.882667 202.730667C887.637333 794.048 876.629333 805.056 863.018667 805.056z" p-id="3065"></path><path d="M602.688 542.08c0.277333 0 0.554667-0.042667 0.832-0.042667 0 0 0.021333 0 0.042667 0L602.688 542.08z" p-id="3066"></path></svg>