<svg t="1637298602633" class="icon" viewBox="0 0 1031 1024" version="1.1" xmlns="http://www.w3.org/2000/svg" p-id="6723" width="48" height="48"><path d="M760.685714 416.914286c-65.828571 0-124.342857 21.942857-168.228571 58.514285H175.542857c-14.628571 0-29.257143 14.628571-29.257143 36.571429 0 14.628571 14.628571 36.571429 36.571429 36.571429h351.085714c-29.257143 51.2-51.2 87.771429-51.2 153.6H175.542857c-14.628571 0-36.571429 14.628571-36.571428 36.571428v7.314286c0 7.314286 14.628571 21.942857 36.571428 21.942857h314.514286c14.628571 65.828571 58.514286 124.342857 117.028571 168.228571h-512c-51.2 0-95.085714-43.885714-95.085714-102.4V190.171429c0-58.514286 43.885714-102.4 95.085714-102.4h833.828572c51.2 0 95.085714 43.885714 95.085714 102.4v504.685714c7.314286-160.914286-117.028571-277.942857-263.314286-277.942857zM892.342857 292.571429c0-14.628571-14.628571-36.571429-36.571428-36.571429H175.542857c-14.628571 0-29.257143 14.628571-29.257143 36.571429v7.314285c0 14.628571 14.628571 36.571429 36.571429 36.571429h680.228571c14.628571-14.628571 29.257143-21.942857 29.257143-43.885714z m-131.657143 182.857142c124.342857-7.314286 226.742857 95.085714 226.742857 212.114286s-95.085714 226.742857-212.114285 226.742857-226.742857-95.085714-226.742857-212.114285c-14.628571-124.342857 87.771429-226.742857 212.114285-226.742858z m-73.142857 292.571429h58.514286v58.514286c0 7.314286 0 14.628571 7.314286 14.628571s14.628571 0 14.628571-7.314286v-65.828571h58.514286c7.314286 0 14.628571-7.314286 14.628571-14.628571s-7.314286-14.628571-14.628571-14.628572h-58.514286v-51.2h58.514286c7.314286 0 14.628571-7.314286 14.628571-14.628571s-7.314286-14.628571-14.628571-14.628572h-58.514286l65.828571-58.514285V577.828571c0-7.314286-7.314286-7.314286-14.628571 0l-58.514286 58.514286-51.2-65.828571h-14.628571c-14.628571 7.314286-14.628571 14.628571-7.314286 29.257143l58.514286 65.828571h-58.514286c-7.314286 0-14.628571 7.314286-14.628571 14.628571 0 0 7.314286 7.314286 14.628571 7.314286h58.514286v43.885714h-58.514286c-7.314286 0-14.628571 7.314286-14.628571 14.628572s7.314286 21.942857 14.628571 21.942857z" p-id="6724"></path></svg>