<svg t="1639723257377" class="icon" viewBox="0 0 1024 1024" version="1.1" xmlns="http://www.w3.org/2000/svg" p-id="3487" width="48" height="48"><path d="M388.876288 688.140288l246.247424 0 0 22.081536-246.247424 0 0-22.081536Z" p-id="3488"></path><path d="M506.976256 549.328896 507.267072 549.617664 600.32 454.240256 576.456704 430.209024 506.976256 500.703232 476.213248 469.436416 452.378624 493.469696 506.710016 549.617664Z" p-id="3489"></path><path d="M512 51.2c-254.492672 0-460.8 206.307328-460.8 460.8 0 254.492672 206.307328 460.8 460.8 460.8s460.8-206.307328 460.8-460.8C972.8 257.507328 766.492672 51.2 512 51.2zM241.106944 728.705024l25.14944-62.420992 189.968384 0L315.67872 523.78624 541.09184 295.294976 722.944 479.649792l-184.096768 186.632192 216.619008 0 27.424768 62.420992L241.106944 728.702976z" p-id="3490"></path></svg>