<svg t="1633869291297" class="icon" viewBox="0 0 1024 1024" version="1.1" xmlns="http://www.w3.org/2000/svg" p-id="3581" width="64" height="64"><path d="M259.21 805.57c16.41-0.81 32.88-0.74 49.34-0.76 148.74-0.05 297.48-0.05 446.23 0.03 6.6 0 13.41 0.09 19.78 1.53 20.47 4.65 34.29 24.21 31.66 43.82-2.91 21.73-20.71 36.78-44.26 36.83-59.82 0.12-119.62 0.03-179.44 0.03h-69.31c-81.65 0-163.3 0.05-244.96-0.09-6.88-0.02-14.03-0.52-20.61-2.34-18.65-5.2-31.19-23.89-29.12-42.08 2.41-21.22 18.1-35.87 40.69-36.97z m654.75-400.71c-10.22 1.41-14.7 5.33-17.54 15.08-29.68 101.68-59.89 203.2-89.96 304.77-1.22 4.17-2.55 8.34-4 12.46-2.71 7.69-8.57 11.27-16.56 11.77-2.84 0.19-5.69 0.09-8.55 0.09H248.16c-20.2 0-23.21-2.15-28.81-21.01-30.93-104.23-61.9-208.46-92.61-312.75-1.84-6.22-4.24-8.6-11.22-9.48-31-3.84-51.34-26.16-51.3-54.92 0.05-27 21.39-50.12 49.74-53.87 25.8-3.43 52.48 14.03 59.61 39.17 4.91 17.29 1.84 33.28-8.84 47.84-2.19 2.98-4.55 5.86-7.34 9.46 7.57 4.64 14.72 9.12 21.94 13.46 48.06 28.93 96.09 57.87 144.19 86.7 15.36 9.19 20.21 7.93 28.61-7.12 45.07-80.79 90.1-161.58 135.11-242.39 1.48-2.67 2.72-5.48 4.02-8.13-36.95-27.23-45.01-60.92-21.3-87.65 21.77-24.52 58.71-26.06 81.84-3.41 27.4 26.83 21.65 56.51-18.39 91.44 10.91 19.65 21.89 39.53 32.93 59.39 34.52 61.97 69.07 123.93 103.61 185.9 11.82 21.23 14.91 22.06 35.66 9.55l152.17-91.73c3.19-1.93 6.27-4.02 9.89-6.32-15.15-15.7-22.02-33.3-17.15-54.34 6.22-26.8 32.55-45 60.35-41.71 28.14 3.34 49.48 26.52 49.49 53.75 0.01 27.56-18.72 50.15-46.4 54z" p-id="3582"></path></svg>