<svg t="1645603053795" class="icon" viewBox="0 0 1024 1024" version="1.1" xmlns="http://www.w3.org/2000/svg" p-id="9542" width="32" height="32"><path d="M460.506429 0h53.522585l20.206844 3.91697c-21.96883 55.44157-37.276711 112.17013-44.103658 172.020666 3.010977-0.668995 4.275967-0.565996 4.620964-1.085992 2.986977-4.480965 5.801955-9.07793 8.678932-13.633894 26.188797-41.469678 60.464531-73.579429 106.615174-90.562298 70.395454-25.904799 136.345943-11.434911 198.135463 26.774793C882.320159 143.272889 932.177772 210.462368 965.99251 290.21275c12.162906 28.687778 20.828838 58.894543 31.842753 90.563297-45.926644-1.749986-87.74132-3.101976-129.270998 4.704964 3.579972 2.62998 7.483942 3.545973 10.907916 5.381958 22.728824 12.178906 47.794629 21.457834 67.573476 37.42571 70.729452 57.113557 87.67332 134.311959 71.048449 220.343292-17.562864 90.857296-67.603476 162.982736-135.155952 223.147269-23.21582 20.67584-49.101619 38.282703-75.842412 58.890544-16.336873-66.048488-39.028697-125.018031-71.969442-181.722591-1.415989 3.332974-2.090984 4.133968-2.009985 4.851962 0.504996 4.478965 1.201991 8.935931 1.784987 13.408896 8.490934 64.937496-1.865986 125.493027-44.512655 176.73563-47.195634 56.70756-110.710142 79.061387-181.753591 80.010379-112.280129 1.496988-207.903388-42.660669-292.630731-114.367113-1.826986-1.544988-3.013977-3.86197-4.820962-6.242951 48.165627-30.526763 91.793288-65.096495 128.506003-108.38416-5.500957-0.132999-9.983923 1.27699-14.241889 3.200975-49.567616 22.381826-100.695219 31.126759-153.671809 15.183882C97.900241 791.113866 52.969589 737.819279 25.627801 667.857821-4.505965 590.755419-6.274951 511.078037 11.010915 430.951658c7.069945-32.772746 18.139859-64.662499 28.173781-99.688227 48.056627 40.683685 96.250254 72.937434 150.440834 95.828257-2.100984-5.431958-5.435958-9.365927-8.742933-13.321896-39.93869-47.782629-62.575515-101.691211-55.552569-165.452717 6.951946-63.127511 38.996698-112.416128 85.524337-152.855815C265.417942 48.034628 329.807443 21.830831 399.8099 8.738932 419.888744 4.983961 440.265586 2.867978 460.506429 0z m-53.630584 517.535987c0.03 63.21451 47.618631 111.127138 110.298145 111.045139 60.796529-0.076999 109.474151-49.515616 109.497151-111.213138 0.023-62.452516-48.753622-111.821133-110.368144-111.700134-62.390516 0.120999-109.457151 48.236626-109.427152 111.868133z" p-id="9543"></path></svg>